<mxfile host="app.diagrams.net" modified="2023-04-03T12:16:21.042Z" agent="Mozilla/5.0 (Windows NT 10.0; Win64; x64) AppleWebKit/537.36 (KHTML, like Gecko) Chrome/111.0.0.0 Safari/537.36" etag="A2Z3qKIQXC3aw83giP9M" version="21.1.4" type="device">
  <diagram name="Page-1" id="W_aHGhzA4mDRrx-GgKEu">
    <mxGraphModel dx="1434" dy="764" grid="1" gridSize="10" guides="1" tooltips="1" connect="1" arrows="1" fold="1" page="1" pageScale="1" pageWidth="827" pageHeight="1169" math="0" shadow="0">
      <root>
        <mxCell id="0" />
        <mxCell id="1" parent="0" />
        <mxCell id="UxETiAbjNiSCnr7GiQcg-3" value="&lt;h1&gt;Bejelntkezési felület&lt;/h1&gt;" style="rounded=0;whiteSpace=wrap;html=1;" vertex="1" parent="1">
          <mxGeometry x="50" y="100" width="730" height="570" as="geometry" />
        </mxCell>
        <mxCell id="UxETiAbjNiSCnr7GiQcg-4" value="" style="rounded=0;whiteSpace=wrap;html=1;" vertex="1" parent="1">
          <mxGeometry x="89" y="150" width="650" height="490" as="geometry" />
        </mxCell>
        <mxCell id="UxETiAbjNiSCnr7GiQcg-6" value="&lt;h1&gt;Bejelentkezési felület&lt;/h1&gt;" style="text;html=1;strokeColor=none;fillColor=none;align=center;verticalAlign=middle;whiteSpace=wrap;rounded=0;" vertex="1" parent="1">
          <mxGeometry x="269" y="110" width="290" height="30" as="geometry" />
        </mxCell>
        <mxCell id="UxETiAbjNiSCnr7GiQcg-7" value="&lt;h2&gt;Email cím:&lt;/h2&gt;" style="text;html=1;strokeColor=none;fillColor=none;align=center;verticalAlign=middle;whiteSpace=wrap;rounded=0;" vertex="1" parent="1">
          <mxGeometry x="130" y="200" width="150" height="30" as="geometry" />
        </mxCell>
        <mxCell id="UxETiAbjNiSCnr7GiQcg-8" value="" style="rounded=0;whiteSpace=wrap;html=1;" vertex="1" parent="1">
          <mxGeometry x="280" y="185" width="260" height="60" as="geometry" />
        </mxCell>
        <mxCell id="UxETiAbjNiSCnr7GiQcg-9" value="&lt;font style=&quot;font-size: 18px;&quot;&gt;valami@valami.hu&lt;/font&gt;" style="text;html=1;strokeColor=none;fillColor=none;align=center;verticalAlign=middle;whiteSpace=wrap;rounded=0;" vertex="1" parent="1">
          <mxGeometry x="390" y="200" width="60" height="30" as="geometry" />
        </mxCell>
        <mxCell id="UxETiAbjNiSCnr7GiQcg-10" value="" style="shape=callout;whiteSpace=wrap;html=1;perimeter=calloutPerimeter;size=30;position=0.21;position2=0.02;base=31;" vertex="1" parent="1">
          <mxGeometry x="550" y="170" width="140" height="70" as="geometry" />
        </mxCell>
        <mxCell id="UxETiAbjNiSCnr7GiQcg-11" value="&lt;font color=&quot;#ff0000&quot;&gt;Hibás email cím!&lt;/font&gt;" style="text;html=1;strokeColor=none;fillColor=none;align=center;verticalAlign=middle;whiteSpace=wrap;rounded=0;" vertex="1" parent="1">
          <mxGeometry x="567.5" y="180" width="105" height="30" as="geometry" />
        </mxCell>
        <mxCell id="UxETiAbjNiSCnr7GiQcg-12" value="&lt;h2&gt;Jelszó:&lt;/h2&gt;" style="text;html=1;strokeColor=none;fillColor=none;align=center;verticalAlign=middle;whiteSpace=wrap;rounded=0;" vertex="1" parent="1">
          <mxGeometry x="175" y="280" width="60" height="30" as="geometry" />
        </mxCell>
        <mxCell id="UxETiAbjNiSCnr7GiQcg-13" value="&lt;font style=&quot;font-size: 22px;&quot;&gt;*******&lt;/font&gt;" style="rounded=0;whiteSpace=wrap;html=1;" vertex="1" parent="1">
          <mxGeometry x="280" y="270" width="260" height="60" as="geometry" />
        </mxCell>
        <mxCell id="UxETiAbjNiSCnr7GiQcg-14" value="&lt;br&gt;&lt;span style=&quot;color: rgb(255, 0, 0); font-family: Helvetica; font-size: 12px; font-style: normal; font-variant-ligatures: normal; font-variant-caps: normal; font-weight: 400; letter-spacing: normal; orphans: 2; text-align: center; text-indent: 0px; text-transform: none; widows: 2; word-spacing: 0px; -webkit-text-stroke-width: 0px; background-color: rgb(251, 251, 251); text-decoration-thickness: initial; text-decoration-style: initial; text-decoration-color: initial; float: none; display: inline !important;&quot;&gt;Hibás jelszó!&lt;/span&gt;" style="shape=callout;whiteSpace=wrap;html=1;perimeter=calloutPerimeter;size=30;position=0.21;position2=0.02;base=31;" vertex="1" parent="1">
          <mxGeometry x="550" y="260" width="140" height="70" as="geometry" />
        </mxCell>
        <mxCell id="UxETiAbjNiSCnr7GiQcg-16" value="" style="rounded=1;whiteSpace=wrap;fontColor=none;labelBackgroundColor=none;labelBorderColor=none;textOpacity=0;fillColor=#3333FF;noLabel=1;" vertex="1" parent="1">
          <mxGeometry x="280" y="360" width="260" height="80" as="geometry" />
        </mxCell>
        <mxCell id="UxETiAbjNiSCnr7GiQcg-17" value="&lt;h2 style=&quot;font-size: 33px;&quot;&gt;Belépés&lt;/h2&gt;" style="text;html=1;strokeColor=none;fillColor=none;align=center;verticalAlign=middle;whiteSpace=wrap;rounded=0;fontSize=33;fontStyle=1" vertex="1" parent="1">
          <mxGeometry x="380" y="385" width="60" height="30" as="geometry" />
        </mxCell>
        <mxCell id="UxETiAbjNiSCnr7GiQcg-18" value="" style="rounded=1;whiteSpace=wrap;fontColor=none;labelBackgroundColor=none;labelBorderColor=none;textOpacity=0;fillColor=#3333FF;noLabel=1;" vertex="1" parent="1">
          <mxGeometry x="280" y="450" width="260" height="80" as="geometry" />
        </mxCell>
        <mxCell id="UxETiAbjNiSCnr7GiQcg-19" value="" style="rounded=1;whiteSpace=wrap;fontColor=none;labelBackgroundColor=none;labelBorderColor=none;textOpacity=0;fillColor=#3333FF;noLabel=1;" vertex="1" parent="1">
          <mxGeometry x="220" y="540" width="370" height="80" as="geometry" />
        </mxCell>
        <mxCell id="UxETiAbjNiSCnr7GiQcg-21" value="&lt;h2 style=&quot;font-size: 33px;&quot;&gt;Regisztráció&lt;/h2&gt;" style="text;html=1;strokeColor=none;fillColor=none;align=center;verticalAlign=middle;whiteSpace=wrap;rounded=0;fontSize=33;fontStyle=1" vertex="1" parent="1">
          <mxGeometry x="380" y="475" width="60" height="30" as="geometry" />
        </mxCell>
        <mxCell id="UxETiAbjNiSCnr7GiQcg-22" value="&lt;h2 style=&quot;font-size: 23px;&quot;&gt;Belépés felhasználó nélkül&lt;/h2&gt;" style="text;html=1;strokeColor=none;fillColor=none;align=center;verticalAlign=middle;whiteSpace=wrap;rounded=0;fontSize=33;fontStyle=1" vertex="1" parent="1">
          <mxGeometry x="230" y="555" width="350" height="50" as="geometry" />
        </mxCell>
        <mxCell id="UxETiAbjNiSCnr7GiQcg-23" value="1. oldal" style="text;html=1;strokeColor=none;fillColor=none;align=center;verticalAlign=middle;whiteSpace=wrap;rounded=0;fontColor=#007FFF;" vertex="1" parent="1">
          <mxGeometry x="679" y="610" width="60" height="30" as="geometry" />
        </mxCell>
      </root>
    </mxGraphModel>
  </diagram>
</mxfile>
